# xmcd
#
# Track frame offsets:
#	150
#	23634
#	40848
#	60198
#	81550
#	99129
#	123786
#	147473
#	167150
#	187656
#	210799
#	228981
#	260521
#	284093
#	303343
#	325028
#
# Disc length: 4639 seconds
#
# Revision: 0
# Processed by: cddbd v1.5.2PL0 Copyright (c) Steve Scherf et al.
# Submitted via: audiograbber 1.83.01
#
DISCID=cb121d10
DTITLE=Various Soul Artists - Winter Smooth Grooves
DYEAR=2007
DGENRE=R&B
TTITLE0=Sparkle - Be Careful
TTITLE1=Changing Faces - G.H.E.T.T.O.U.T
TTITLE2=Changing Faces - Fooling Around
TTITLE3=Troop - All I Do Is Think Of You
TTITLE4=Shalamar - I Don't Wanna Be The Last To Know
TTITLE5=Howard Hewitt - Show Me
TTITLE6=Miki Howard - Baby Be Mine
TTITLE7=James Ingram - Just Once
TTITLE8=Klymaxx - I'd Still Say Yes
TTITLE9=Jesee Powell - You
TTITLE10=Larry Graham - One in a Million You
TTITLE11=Lenny Williams - Because I Love You
TTITLE12=Milira - Go Outside In The Rain
TTITLE13=Marques Houston - Naked
TTITLE14=Maxwell - Fortunate
TTITLE15=SFP - My Love Is The Shhh!
EXTD=DJ HARITH - http://www.myspace.com/pradahblack
EXTT0=
EXTT1=
EXTT2=
EXTT3=
EXTT4=
EXTT5=
EXTT6=
EXTT7=
EXTT8=
EXTT9=
EXTT10=
EXTT11=
EXTT12=
EXTT13=
EXTT14=
EXTT15=
PLAYORDER=
